<svg xmlns="http://www.w3.org/2000/svg" viewBox="0 0 1200 630" width="1200" height="630" role="img" aria-label="そば屋は心のヤバイやつ 〜ドキドキ好感度ADV〜">
  <defs>
    <linearGradient id="bg" x1="0" y1="0" x2="0" y2="1">
      <stop offset="0" stop-color="#ffe3ec"/>
      <stop offset="1" stop-color="#ffc2d8"/>
    </linearGradient>
    <radialGradient id="glow" cx="0.72" cy="0.45" r="0.6">
      <stop offset="0" stop-color="#ffffff" stop-opacity="0.85"/>
      <stop offset="1" stop-color="#ffffff" stop-opacity="0"/>
    </radialGradient>
  </defs>

  <rect width="1200" height="630" fill="url(#bg)"/>
  <rect width="1200" height="630" fill="url(#glow)"/>

  <!-- 舞い散るハート -->
  <g fill="#ff85a9" opacity="0.5">
    <path d="M120 90 a14 14 0 0 1 24 0 a14 14 0 0 1 24 0 q0 18 -24 34 q-24 -16 -24 -34 z"/>
    <path d="M1010 500 a11 11 0 0 1 19 0 a11 11 0 0 1 19 0 q0 14 -19 27 q-19 -13 -19 -27 z"/>
    <path d="M170 470 a9 9 0 0 1 16 0 a9 9 0 0 1 16 0 q0 12 -16 22 q-16 -10 -16 -22 z"/>
    <path d="M980 120 a8 8 0 0 1 14 0 a8 8 0 0 1 14 0 q0 10 -14 20 q-14 -10 -14 -20 z"/>
  </g>

  <!-- そば屋アバター（NG変更：白い仮面・ビールジョッキ厳守） -->
  <g transform="translate(690 120) scale(1.55)">
    <path d="M40 320 L40 210 Q40 168 110 160 Q180 168 180 210 L180 320 Z" fill="#f7f7f7" stroke="#e2e2e2" stroke-width="2"/>
    <rect x="94" y="150" width="32" height="26" rx="8" fill="#e9d7c3"/>
    <path d="M58 78 Q56 40 82 32 Q90 20 110 26 Q130 20 138 32 Q164 40 162 78 Q150 60 138 66 Q132 50 118 58 Q110 46 102 58 Q88 50 82 66 Q70 60 58 78 Z" fill="#2a2a2a"/>
    <ellipse cx="110" cy="102" rx="58" ry="62" fill="#fbfbfb" stroke="#e2e2e2" stroke-width="2"/>
    <circle cx="110" cy="66" r="6" fill="#d23b3b"/>
    <path d="M84 84 q-6 26 -2 46" stroke="#d23b3b" stroke-width="7" fill="none" stroke-linecap="round"/>
    <path d="M98 86 q-4 24 -1 40" stroke="#d23b3b" stroke-width="6" fill="none" stroke-linecap="round"/>
    <path d="M136 84 q6 26 2 46" stroke="#d23b3b" stroke-width="7" fill="none" stroke-linecap="round"/>
    <path d="M122 86 q4 24 1 40" stroke="#d23b3b" stroke-width="6" fill="none" stroke-linecap="round"/>
    <ellipse cx="72" cy="116" rx="12" ry="7" fill="#ff9bb3" opacity="0.55"/>
    <ellipse cx="148" cy="116" rx="12" ry="7" fill="#ff9bb3" opacity="0.55"/>
    <path d="M79 98 q9 -12 18 0" stroke="#1a1a1a" stroke-width="6" fill="none" stroke-linecap="round"/>
    <path d="M123 98 q9 -12 18 0" stroke="#1a1a1a" stroke-width="6" fill="none" stroke-linecap="round"/>
    <path d="M98 128 q12 12 24 0" stroke="#5b4b3a" stroke-width="6" fill="none" stroke-linecap="round"/>
    <g transform="translate(150 196)">
      <rect x="0" y="0" width="46" height="60" rx="6" fill="#ffe08a" stroke="#e0a93b" stroke-width="3"/>
      <rect x="0" y="0" width="46" height="16" rx="6" fill="#fffdf5" stroke="#e0a93b" stroke-width="3"/>
      <path d="M46 12 q22 4 22 24 q0 20 -22 24" fill="none" stroke="#e0a93b" stroke-width="6"/>
    </g>
  </g>

  <!-- タイトル -->
  <g font-family="'Hiragino Kaku Gothic ProN','Yu Gothic',sans-serif">
    <rect x="70" y="150" width="300" height="42" rx="21" fill="#ff5c8a"/>
    <text x="90" y="179" font-size="22" font-weight="800" fill="#ffffff" letter-spacing="2">YABA♡YABA COMICS ADV</text>

    <text x="66" y="320" font-size="86" font-weight="900" fill="#d63b6b">そば屋は</text>
    <text x="66" y="420" font-size="86" font-weight="900" fill="#ff5c8a">心のヤバイやつ</text>

    <text x="70" y="490" font-size="34" font-weight="800" fill="#d63b6b">〜ドキドキ好感度アドベンチャー〜</text>
  </g>
</svg>
